<?xml version="1.0" encoding="utf-8"?>
<!-- Generator: Adobe Illustrator 24.3.0, SVG Export Plug-In . SVG Version: 6.00 Build 0)  -->
<svg version="1.1" id="Calque_1" xmlns="http://www.w3.org/2000/svg" xmlns:xlink="http://www.w3.org/1999/xlink" x="0px" y="0px"
	 viewBox="0 0 1108.02 212.74" style="enable-background:new 0 0 1108.02 212.74;" xml:space="preserve">
<style type="text/css">
	.st0{fill:#FFFFFF;}
	.st1{fill:#373CF5;}
</style>
<g>
	<g>
		<path class="st0" d="M1001.44,213.17H106.59C47.96,213.17,0,165.21,0,106.59v0C0,47.96,47.96,0,106.59,0l894.85,0
			c58.62,0,106.59,47.96,106.59,106.59v0C1108.02,165.21,1060.06,213.17,1001.44,213.17z"/>
		<g>
			<g>
				<path class="st1" d="M85.27,106.58c0,35.27,28.69,63.96,63.95,63.96c16.79,0,30.03-6.33,39.32-13.58l-13.49-15.06
					c-7.42,5.35-16.09,8.36-25.83,8.36c-24.08,0-43.68-19.59-43.68-43.68c0-24.07,19.59-43.67,43.68-43.67
					c6.23,0,12.15,1.33,17.51,3.7l8.04-18.63c-7.83-3.42-16.46-5.34-25.55-5.34C113.96,42.63,85.27,71.32,85.27,106.58z"/>
				<path class="st1" d="M115.13,106.58c0,18.8,15.29,34.09,34.09,34.09c7.2,0,14.48-2.57,19.15-6.07c0,0-12.67-14.12-13.77-15.33
					c-1.14,0.55-3.44,1.12-5.38,1.12c-7.6,0-13.81-6.18-13.81-13.8c0-7.61,6.24-13.99,13.85-13.99c1.97,0,3.91,0.46,5.62,1.21
					l8-18.36c-4.07-1.72-8.58-2.93-13.66-2.93C130.42,72.5,115.13,87.78,115.13,106.58z"/>
				<g>
					<path class="st1" d="M174.64,93.33c1.75,3.47,3.28,8.21,3.28,13.26c0,6.39-2.7,13.31-6.29,17.92l13.68,15.07
						c7.62-8.16,12.88-20,12.88-33c0-7.69-1.92-15.44-5.15-21.83L174.64,93.33z"/>
				</g>
			</g>
			<g>
				<path class="st1" d="M168.96,85.77l34.72-16.27c-5.13-7.54-12.13-14.43-19.28-18.75l-15.55,34.91L168.96,85.77z"/>
			</g>
		</g>
		<g>
			<path class="st1" d="M281.92,53.28l-5.42,6.43c-2.5-2.17-5.14-3.38-8.39-3.38c-5.96,0-10.16,4.81-10.16,16.32
				c0,11.31,4.13,16.11,10.36,16.11c3.72,0,6.43-1.83,9.14-3.93l5.01,6.5c-3.05,3.11-8.19,6.03-14.69,6.03
				c-12.86,0-21.46-8.67-21.46-24.71c0-15.71,9.07-24.51,21.12-24.51C273.8,48.14,278.06,50.03,281.92,53.28z"/>
			<path class="st1" d="M297.82,76.1V96.2h-11.1V49.29h11.1v18.14h14.08V49.29H323V96.2h-11.1V76.1H297.82z"/>
			<path class="st1" d="M339.71,86.12l-2.37,10.09h-11.51l14.15-46.92h13.47L367.6,96.2h-11.78l-2.44-10.09H339.71z M346.55,57.34
				l-4.94,20.72h9.88L346.55,57.34z"/>
			<path class="st1" d="M406.05,96.2l-0.81-18.35c-0.34-6.57-0.47-13.34-0.13-19.16l-7.24,32.56h-10.49l-7.72-32.56
				c0.47,6.91,0.47,12.73,0.2,19.3l-0.81,18.21H368.2l3.52-46.92h14.01l7.04,31.82l6.57-31.82h14.08l3.52,46.92H406.05z"/>
			<path class="st1" d="M458.91,82.53c0,10.7-8.67,13.68-20.45,13.68h-15.1V49.29h13.27c12.59,0,20.31,3.18,20.31,11.98
				c0,5.96-4.27,9.07-8.6,10.09C453.56,72.37,458.91,74.94,458.91,82.53z M434.47,68.04h4.13c4.6,0,7.04-1.76,7.04-5.69
				c0-3.93-2.57-5.21-7.92-5.21h-3.25V68.04z M447.47,81.92c0-4.74-3.32-6.5-8.12-6.5h-4.87v12.73h4.06
				C443.74,88.15,447.47,87.06,447.47,81.92z"/>
			<path class="st1" d="M475.55,78.26V96.2h-11.1V49.29h15.37c12.73,0,19.29,4.53,19.29,14.28c0,6.16-2.91,9.88-9.01,12.66
				l11.92,19.97H489.5l-9.62-17.94H475.55z M480.22,70.61c4.87,0,7.45-2.1,7.45-7.04c0-4.53-2.64-6.5-8.12-6.5h-4v13.54H480.22z"/>
			<path class="st1" d="M516.63,57.21v11.24h14.42v7.79h-14.42v11.98h17.67v7.99h-28.77V49.29h28.77l-1.15,7.92H516.63z"/>
			<path class="st1" d="M593.26,72.51c0,18.89-11.37,23.7-23.36,23.7h-14.08V49.29h13.07C581.41,49.29,593.26,53.15,593.26,72.51z
				 M566.92,88.15h3.66c6.7,0,11.17-3.18,11.17-15.64c0-12.59-4.81-15.17-11.31-15.17h-3.52V88.15z"/>
			<path class="st1" d="M610.3,57.21v11.24h14.42v7.79H610.3v11.98h17.67v7.99H599.2V49.29h28.77l-1.15,7.92H610.3z"/>
			<path class="st1" d="M682.93,53.28l-5.42,6.43c-2.5-2.17-5.14-3.38-8.39-3.38c-5.96,0-10.16,4.81-10.16,16.32
				c0,11.31,4.13,16.11,10.36,16.11c3.72,0,6.43-1.83,9.14-3.93l5.01,6.5c-3.05,3.11-8.19,6.03-14.69,6.03
				c-12.86,0-21.46-8.67-21.46-24.71c0-15.71,9.07-24.51,21.12-24.51C674.81,48.14,679.07,50.03,682.93,53.28z"/>
			<path class="st1" d="M726.52,72.71c0,15.37-7.92,24.64-21.19,24.64c-13.2,0-21.12-9.01-21.12-24.64
				c0-15.3,7.92-24.57,21.12-24.57C718.6,48.14,726.52,57.07,726.52,72.71z M695.85,72.71c0,11.92,3.39,16.52,9.48,16.52
				c6.36,0,9.55-4.6,9.55-16.52c0-11.85-3.25-16.45-9.55-16.45C699.1,56.26,695.85,60.86,695.85,72.71z"/>
			<path class="st1" d="M767.47,96.2l-0.81-18.35c-0.34-6.57-0.47-13.34-0.13-19.16l-7.24,32.56h-10.49l-7.72-32.56
				c0.47,6.91,0.47,12.73,0.2,19.3l-0.81,18.21h-10.83l3.52-46.92h14.01l7.04,31.82l6.57-31.82h14.08l3.52,46.92H767.47z"/>
			<path class="st1" d="M820.46,96.2l-0.81-18.35c-0.34-6.57-0.47-13.34-0.13-19.16l-7.24,32.56h-10.49l-7.72-32.56
				c0.47,6.91,0.47,12.73,0.2,19.3l-0.81,18.21h-10.83l3.52-46.92h14.01l7.04,31.82l6.57-31.82h14.08l3.52,46.92H820.46z"/>
			<path class="st1" d="M848.88,57.21v11.24h14.42v7.79h-14.42v11.98h17.67v7.99h-28.77V49.29h28.77l-1.15,7.92H848.88z"/>
			<path class="st1" d="M883.8,78.26V96.2h-11.1V49.29h15.37c12.73,0,19.3,4.53,19.3,14.28c0,6.16-2.91,9.88-9,12.66l11.92,19.97
				h-12.53l-9.62-17.94H883.8z M888.48,70.61c4.87,0,7.45-2.1,7.45-7.04c0-4.53-2.64-6.5-8.12-6.5h-4v13.54H888.48z"/>
			<path class="st1" d="M946.55,53.28l-5.42,6.43c-2.5-2.17-5.14-3.38-8.39-3.38c-5.96,0-10.16,4.81-10.16,16.32
				c0,11.31,4.13,16.11,10.36,16.11c3.72,0,6.43-1.83,9.14-3.93l5.01,6.5c-3.05,3.11-8.19,6.03-14.69,6.03
				c-12.86,0-21.46-8.67-21.46-24.71c0-15.71,9.07-24.51,21.12-24.51C938.43,48.14,942.69,50.03,946.55,53.28z"/>
			<path class="st1" d="M962.45,57.21v11.24h14.42v7.79h-14.42v11.98h17.67v7.99h-28.77V49.29h28.77l-1.15,7.92H962.45z"/>
			<path class="st1" d="M259.58,124.89v11.24H274v7.79h-14.42v11.98h17.67v7.99h-28.77v-46.92h28.77l-1.15,7.92H259.58z"/>
			<path class="st1" d="M302.83,125.5v38.39h-11.1V125.5h-12.12v-8.53h35.88l-1.08,8.53H302.83z"/>
			<path class="st1" d="M372.07,140.19c0,18.89-11.37,23.7-23.36,23.7h-14.08v-46.92h13.07
				C360.23,116.97,372.07,120.83,372.07,140.19z M345.74,155.83h3.66c6.7,0,11.17-3.18,11.17-15.64c0-12.59-4.81-15.17-11.31-15.17
				h-3.52V155.83z"/>
			<path class="st1" d="M387.49,117.51c0,1.76-0.54,3.38-1.96,6.3l-4.33,8.94h-5.48l2.84-10.63c-1.56-1.08-2.5-2.5-2.5-4.67
				c0-3.05,2.5-5.42,5.75-5.42S387.49,114.39,387.49,117.51z"/>
			<path class="st1" d="M393.79,163.89v-46.92h11.1v46.92H393.79z"/>
			<path class="st1" d="M435.01,163.89l-13.54-36.36c0.54,4.27,1.42,10.49,1.42,19.16v17.2h-9.88v-46.92h13.81l13.88,36.42
				c-0.61-3.79-1.49-9.95-1.49-17.47v-18.96h9.95v46.92H435.01z"/>
			<path class="st1" d="M494.64,140.19c0,18.89-11.37,23.7-23.36,23.7H457.2v-46.92h13.07C482.8,116.97,494.64,120.83,494.64,140.19
				z M468.31,155.83h3.66c6.7,0,11.17-3.18,11.17-15.64c0-12.59-4.81-15.17-11.31-15.17h-3.52V155.83z"/>
			<path class="st1" d="M518.19,165.04c-12.25,0-18.28-6.84-18.28-16.72v-31.35h11.1v30.87c0,6.02,2.17,8.94,7.18,8.94
				c5.08,0,7.24-2.91,7.24-8.94v-30.87h11.1v31.35C536.54,157.79,530.44,165.04,518.19,165.04z"/>
			<path class="st1" d="M575.32,121.84l-5.21,6.02c-3.18-2.64-6.43-3.93-10.22-3.93c-3.86,0-6.3,1.62-6.3,4.6
				c0,2.98,1.76,4.2,9.07,6.5c8.87,2.84,13.95,6.5,13.95,15.17c0,8.73-6.91,14.83-18.62,14.83c-8.12,0-13.95-2.98-17.81-6.7
				l5.69-6.23c3.32,2.98,7.11,4.67,11.78,4.67c4.6,0,7.45-2.17,7.45-5.75c0-3.45-1.76-5.01-8.6-7.11
				c-10.49-3.25-14.35-7.58-14.35-14.56c0-8.26,7.18-13.54,16.93-13.54C566.24,115.82,571.19,117.92,575.32,121.84z"/>
			<path class="st1" d="M600.76,125.5v38.39h-11.1V125.5h-12.12v-8.53h35.88l-1.08,8.53H600.76z"/>
			<path class="st1" d="M628.3,145.94v17.94h-11.1v-46.92h15.37c12.73,0,19.29,4.53,19.29,14.28c0,6.16-2.91,9.88-9.01,12.66
				l11.92,19.97h-12.52l-9.62-17.94H628.3z M632.98,138.29c4.87,0,7.45-2.1,7.45-7.04c0-4.53-2.64-6.5-8.12-6.5h-4v13.54H632.98z"/>
			<path class="st1" d="M658.28,163.89v-46.92h11.1v46.92H658.28z"/>
			<path class="st1" d="M688.61,124.89v11.24h14.42v7.79h-14.42v11.98h17.67v7.99h-28.77v-46.92h28.77l-1.15,7.92H688.61z"/>
		</g>
	</g>
</g>
</svg>
